HIERARCHY
ROOT root
{
	OFFSET 0.000000 0.000000 0.000000
	CHANNELS 6 Xposition Yposition Zposition Zrotation Yrotation Xrotation
	JOINT lhip
	{
		OFFSET 0.058581 -0.082280 -0.017664
		CHANNELS 3 Zrotation Yrotation Xrotation
		JOINT lknee
		{
			OFFSET 0.043451 -0.386469 0.008037
			CHANNELS 3 Zrotation Yrotation Xrotation
			JOINT lankle
			{
				OFFSET -0.014790 -0.426874 -0.037428
				CHANNELS 3 Zrotation Yrotation Xrotation
				JOINT ltoe
				{
					OFFSET 0.041054 -0.060286 0.122042
					CHANNELS 3 Zrotation Yrotation Xrotation
					End Site
					{
						OFFSET 0.000000 0.000000 0.000000
					}
				}
			}
		}
	}
	JOINT rhip
	{
		OFFSET -0.060310 -0.090513 -0.013543
		CHANNELS 3 Zrotation Yrotation Xrotation
		JOINT rknee
		{
			OFFSET -0.043257 -0.383688 -0.004843
			CHANNELS 3 Zrotation Yrotation Xrotation
			JOINT rankle
			{
				OFFSET 0.019056 -0.420046 -0.034562
				CHANNELS 3 Zrotation Yrotation Xrotation
				JOINT rtoe
				{
					OFFSET -0.034840 -0.062106 0.130323
					CHANNELS 3 Zrotation Yrotation Xrotation
					End Site
					{
						OFFSET 0.000000 0.000000 0.000000
					}
				}
			}
		}
	}
	JOINT lowerback
	{
		OFFSET 0.004439 0.124404 -0.038385
		CHANNELS 3 Zrotation Yrotation Xrotation
		JOINT upperback
		{
			OFFSET 0.004488 0.137956 0.026820
			CHANNELS 3 Zrotation Yrotation Xrotation
			JOINT chest
			{
				OFFSET -0.002265 0.056032 0.002855
				CHANNELS 3 Zrotation Yrotation Xrotation
				JOINT lowerneck
				{
					OFFSET -0.013390 0.211636 -0.033468
					CHANNELS 3 Zrotation Yrotation Xrotation
					JOINT upperneck
					{
						OFFSET 0.010113 0.088937 0.050410
						CHANNELS 3 Zrotation Yrotation Xrotation
						End Site
						{
							OFFSET 0.000000 0.000000 0.000000
						}
					}
				}
				JOINT lclavicle
				{
					OFFSET 0.071702 0.114000 -0.018898
					CHANNELS 3 Zrotation Yrotation Xrotation
					JOINT lshoulder
					{
						OFFSET 0.122921 0.045205 -0.019046
						CHANNELS 3 Zrotation Yrotation Xrotation
						JOINT lelbow
						{
							OFFSET 0.255332 -0.015649 -0.022946
							CHANNELS 3 Zrotation Yrotation Xrotation
							JOINT lwrist
							{
								OFFSET 0.265709 0.012698 -0.007375
								CHANNELS 3 Zrotation Yrotation Xrotation
								End Site
								{
									OFFSET 0.000000 0.000000 0.000000
								}
							}
						}
					}
				}
				JOINT rclavicle
				{
					OFFSET -0.082954 0.112472 -0.023707
					CHANNELS 3 Zrotation Yrotation Xrotation
					JOINT rshoulder
					{
						OFFSET -0.113228 0.046853 -0.008472
						CHANNELS 3 Zrotation Yrotation Xrotation
						JOINT relbow
						{
							OFFSET -0.260127 -0.014369 -0.031269
							CHANNELS 3 Zrotation Yrotation Xrotation
							JOINT rwrist
							{
								OFFSET -0.269108 0.006794 -0.006027
								CHANNELS 3 Zrotation Yrotation Xrotation
								End Site
								{
									OFFSET 0.000000 0.000000 0.000000
								}
							}
						}
					}
				}
			}
		}
	}
}
MOTION
Frames: 12
Frame Time: 0.033333
0.064045 0.245468 0.977224 -129.947458 1.353382 90.172263 7.713419 -5.976918 -23.831865 -0.516332 -8.122875 23.277815 -4.662175 -9.821640 -4.755282 0.000000 -0.000000 0.000000 -0.647216 -6.307120 0.651350 -5.453021 -15.669364 22.527063 -3.283395 -15.456211 -18.794300 0.000000 -0.000000 0.000000 3.537314 9.136809 2.748478 4.293614 -7.950156 -5.241845 2.390445 3.484018 -11.104030 8.486927 10.371771 -7.087257 5.957398 0.050664 -16.562555 17.041734 -39.118642 -14.065059 -62.911720 -37.875586 -30.402895 169.440208 -62.643447 3.714025 3.907787 25.965810 142.688952 -17.230493 33.590603 -8.439942 57.952137 38.669544 -38.110757 156.356153 63.947630 -14.062403 6.901173 -38.827381 141.451347 
0.062149 0.248947 0.978328 -129.657976 1.046409 89.474889 7.454461 -6.528842 -22.690105 -0.425485 -7.823262 22.965042 -4.917042 -9.913123 -4.847206 0.000000 -0.000000 0.000000 -0.632725 -6.175633 2.138582 -5.734140 -15.884504 21.631356 -3.407818 -15.740032 -18.505880 0.000000 -0.000000 0.000000 3.350825 9.437393 1.449744 4.690649 -7.694270 -5.229105 2.213974 3.374565 -11.561151 8.966816 10.653841 -6.353761 5.419728 -0.106159 -16.856787 18.821302 -37.758769 -14.745786 -61.920583 -39.910752 -33.624973 177.162948 -59.475285 3.819168 1.319908 30.122226 137.023620 -17.838677 32.454860 -8.277933 58.463179 39.955884 -39.499859 157.067359 60.582294 -10.239611 8.378742 -41.081669 136.620105 
0.060517 0.252666 0.978964 -129.414536 0.789316 88.547101 7.135066 -6.783707 -21.303885 -0.343299 -7.741287 22.672611 -5.174524 -10.148168 -4.984922 0.000000 -0.000000 0.000000 -0.615094 -6.311850 3.746466 -6.162677 -16.034254 20.904450 -3.607935 -15.794131 -18.253733 0.000000 -0.000000 0.000000 3.441403 9.546891 0.534442 4.702186 -7.669981 -4.876569 2.299460 3.631534 -12.258265 8.354021 10.051839 -5.643605 5.714153 0.415645 -17.126408 19.133289 -37.461611 -15.065007 -60.672440 -41.198129 -37.621317 -175.700663 -55.529210 -1.300406 0.298326 33.485285 133.438196 -18.232703 32.344438 -7.991865 58.426586 40.469546 -42.759424 155.181957 56.202270 -11.598918 11.683684 -43.525616 130.524258 
0.058398 0.257128 0.978608 -129.341751 0.429843 87.584702 6.767898 -6.811965 -19.892266 -0.166491 -7.127569 22.514506 -5.252901 -11.086949 -5.150204 0.000000 -0.000000 0.000000 -0.801284 -6.548508 5.438938 -6.699789 -16.361480 20.218521 -3.965096 -15.396060 -18.066716 0.000000 -0.000000 0.000000 3.667585 9.710640 -1.068094 4.628052 -7.668880 -4.080235 2.180597 4.026093 -12.833395 8.144948 9.546017 -4.417648 5.777216 1.094035 -17.091016 19.405288 -36.779009 -14.778708 -60.282517 -42.615363 -42.551581 -168.304679 -50.438069 -7.394725 -2.101770 36.285244 129.037221 -18.824599 31.688595 -6.977755 59.287428 42.050760 -48.255887 152.847880 48.738811 -11.767681 16.077004 -44.469176 123.253911 
0.057042 0.259078 0.978292 -129.194717 0.213593 86.905668 6.468285 -7.103579 -19.138747 -0.104722 -6.960881 22.795096 -5.022430 -11.268009 -5.542568 0.000000 -0.000000 0.000000 -0.996636 -6.770441 6.497736 -6.864406 -16.223626 19.930610 -3.967769 -15.417724 -18.098648 0.000000 -0.000000 0.000000 3.707726 9.816397 -1.976232 4.668079 -7.801667 -3.288376 2.240610 4.254151 -13.316760 7.841484 9.395528 -3.627485 5.717584 1.365408 -17.102674 19.090616 -37.001910 -14.885335 -60.092329 -42.499690 -43.090820 -167.780063 -49.018298 -9.013376 -1.528978 36.401595 130.325343 -18.691894 31.956509 -6.710130 58.517145 41.515664 -50.107305 154.311555 46.671785 -10.010539 12.008546 -44.140222 128.961059 
0.055339 0.261424 0.976848 -128.944048 -0.145927 86.011981 6.023739 -7.617847 -18.223791 -0.416514 -7.151039 23.169123 -4.824185 -10.829486 -5.887320 0.000000 -0.000000 0.000000 -1.453886 -6.999282 7.743735 -6.940655 -16.061910 19.754743 -3.916525 -15.692193 -18.142526 0.000000 -0.000000 0.000000 4.010678 10.039143 -2.750937 4.448604 -7.964162 -3.101137 1.979858 4.145554 -13.908773 8.137366 9.136128 -1.957683 5.825550 2.502240 -16.546493 18.347324 -37.393472 -14.275399 -60.489823 -41.388904 -42.928018 -168.680867 -49.172304 -7.247325 -1.458228 36.854659 129.531690 -18.344295 32.190958 -6.385072 59.290941 40.730050 -50.297810 154.551794 46.082547 -8.271172 11.259715 -44.071092 129.229962 
0.054044 0.263387 0.975417 -128.750787 -0.494866 85.245407 5.625610 -8.066229 -17.561828 -0.661774 -7.192592 23.762104 -4.708177 -10.659480 -6.244885 0.000000 -0.000000 0.000000 -1.750573 -6.954130 8.594942 -7.129803 -15.787772 20.069284 -3.982363 -16.141043 -18.332176 0.000000 -0.000000 0.000000 4.057011 10.117543 -3.798789 4.451753 -8.025195 -2.470036 1.808858 4.197005 -14.022102 8.263959 9.166405 -1.352587 5.558934 3.084642 -16.698612 17.669333 -37.093030 -13.761096 -60.358409 -41.173542 -43.261674 -167.966878 -49.424237 -8.061337 -0.998313 37.555143 129.490160 -17.939978 31.755657 -6.088348 59.407098 40.930635 -49.875125 153.473234 46.717450 -9.910380 11.547334 -44.669831 128.508132 
0.052825 0.265481 0.974072 -128.832596 -0.911401 84.423870 5.207150 -8.314450 -16.733425 -0.820288 -7.009864 24.262298 -4.355250 -10.517017 -6.849153 0.000000 -0.000000 0.000000 -2.091108 -6.684522 9.352964 -7.485284 -15.584680 20.639343 -3.974365 -16.492225 -18.495803 0.000000 -0.000000 0.000000 3.921661 10.267109 -4.381183 4.372384 -7.908953 -2.086171 1.774519 4.344349 -14.170864 8.334732 8.813433 -0.602806 5.625668 3.464836 -16.953825 17.672449 -36.807430 -13.973937 -59.979708 -41.030651 -44.089504 -167.303996 -48.955523 -8.783907 -0.252286 37.640852 130.248209 -17.792349 31.551212 -6.009038 59.148795 40.942674 -50.500705 152.839813 46.318722 -11.337701 11.859105 -45.168369 127.808076 
0.051213 0.267165 0.972801 -128.742117 -1.333237 83.881067 4.768740 -8.654544 -16.130532 -0.992448 -6.806481 24.520377 -3.984207 -10.464661 -7.258804 0.000000 -0.000000 0.000000 -2.590970 -6.547303 9.852793 -7.576906 -15.547973 21.208919 -3.925445 -16.767671 -18.879873 0.000000 -0.000000 0.000000 3.896732 10.331744 -4.982148 4.222442 -7.868580 -1.886538 1.568302 4.491538 -14.519168 8.460056 8.609612 -0.023419 5.719976 3.450285 -16.601106 17.993576 -36.910578 -13.950714 -59.624724 -40.974421 -44.097082 -167.647932 -49.027682 -8.931681 -0.346633 37.369051 130.282476 -17.986914 31.914979 -5.865661 59.084879 40.847295 -50.790357 153.630041 46.136815 -10.316173 11.740563 -44.931654 128.186417 
0.049034 0.269005 0.971344 -128.681866 -1.819421 83.446775 4.282543 -8.915377 -15.597166 -1.263432 -6.744265 24.725453 -3.831340 -10.317290 -7.446646 0.000000 -0.000000 0.000000 -3.243402 -6.800630 10.379298 -7.701250 -15.276494 21.474405 -3.776550 -16.785704 -19.078354 0.000000 -0.000000 0.000000 3.790774 10.690324 -6.062605 4.057665 -7.859665 -1.326429 1.398139 4.600946 -14.743585 8.321720 8.625469 0.566363 5.554169 3.598369 -16.983602 17.997520 -36.951151 -14.059161 -59.383539 -40.876189 -44.137225 -168.280559 -49.167037 -8.448910 0.480405 37.628875 130.774920 -17.860094 31.951453 -5.761858 58.925294 40.808920 -50.850231 153.287338 46.330696 -10.925164 11.867809 -45.460250 127.710869 
0.047570 0.270316 0.970633 -128.697564 -2.098225 83.154445 4.030899 -9.133547 -15.229803 -1.418925 -6.541193 24.887150 -4.043104 -10.287089 -7.386656 0.000000 -0.000000 0.000000 -3.570955 -6.859733 10.753810 -7.883702 -15.248732 21.631794 -3.845358 -16.772404 -19.158217 0.000000 -0.000000 0.000000 3.755302 10.901396 -6.778057 3.992909 -7.828621 -0.853637 1.311629 4.652235 -15.032089 8.231677 8.523323 1.026628 5.418130 3.670230 -16.978183 17.684615 -36.779630 -13.910318 -59.291579 -40.600156 -44.560936 -167.952986 -48.949493 -8.829156 0.991339 37.931534 131.459569 -17.516864 31.976771 -5.424499 58.674961 40.921196 -51.021383 152.372948 46.368104 -12.415930 12.148239 -45.768060 127.258762 
0.046214 0.271424 0.970185 -128.717240 -2.385255 82.919718 3.763530 -9.263226 -14.901371 -1.481585 -6.231399 24.994383 -3.844582 -10.332006 -7.673778 0.000000 -0.000000 0.000000 -3.807783 -6.651941 11.058375 -7.989818 -15.170056 21.748051 -3.716034 -17.043273 -19.234299 0.000000 -0.000000 0.000000 3.522408 11.037053 -7.253464 3.969488 -7.744350 -0.629815 1.220953 4.751362 -15.214798 8.360518 8.311689 1.320452 5.286653 3.758273 -16.840165 17.524923 -36.942072 -13.401578 -59.076157 -40.762635 -44.935104 -167.770063 -48.688955 -9.123366 0.990112 37.597813 131.560056 -17.107068 31.832841 -5.318546 58.513898 40.703573 -51.058796 151.790170 46.172898 -13.463845 12.457107 -45.560408 126.711429 
